<?xml version="1.0" encoding="UTF-8"?>
<svg id="_图层_2" data-name="图层 2" xmlns="http://www.w3.org/2000/svg" xmlns:xlink="http://www.w3.org/1999/xlink" viewBox="0 0 512 512">
  <defs>
    <style>
      .cls-1 {
        fill: url(#_未命名的渐变_92);
      }

      .cls-2 {
        fill: #c2aadf;
      }

      .cls-3 {
        fill: url(#_未命名的渐变_87);
      }
    </style>
    <linearGradient id="_未命名的渐变_87" data-name="未命名的渐变 87" x1="130.69" y1="88.69" x2="434.81" y2="392.81" gradientUnits="userSpaceOnUse">
      <stop offset=".03" stop-color="#378a96"/>
      <stop offset=".53" stop-color="#366dba"/>
      <stop offset="1" stop-color="#3550e0"/>
    </linearGradient>
    <linearGradient id="_未命名的渐变_92" data-name="未命名的渐变 92" x1="173" y1="353.28" x2="339" y2="353.28" gradientUnits="userSpaceOnUse">
      <stop offset="0" stop-color="#debaff"/>
      <stop offset="1" stop-color="#da7eee"/>
    </linearGradient>
  </defs>
  <g>
    <path class="cls-3" d="m256,397.5c-90.71,0-164.5-82.32-164.5-183.5S165.29,30.5,256,30.5s164.5,82.32,164.5,183.5-73.79,183.5-164.5,183.5Zm0-348c-57.07,0-103.5,74.69-103.5,166.5s46.43,166.5,103.5,166.5,103.5-74.69,103.5-166.5-46.43-166.5-103.5-166.5Z"/>
    <path class="cls-2" d="m256,31c22.13,0,43.59,4.83,63.8,14.36,19.53,9.21,37.07,22.4,52.13,39.2,31,34.57,48.07,80.54,48.07,129.44s-17.07,94.87-48.07,129.44c-15.06,16.8-32.6,29.99-52.13,39.2-20.21,9.53-41.67,14.36-63.8,14.36s-43.59-4.83-63.8-14.36c-19.53-9.21-37.07-22.4-52.13-39.2-31-34.57-48.07-80.54-48.07-129.44s17.07-94.87,48.07-129.44c15.06-16.8,32.6-29.99,52.13-39.2,20.21-9.53,41.67-14.36,63.8-14.36m0,352c27.87,0,54.04-17.43,73.68-49.09,19.55-31.51,30.32-73.38,30.32-117.91s-10.77-86.4-30.32-117.91c-19.64-31.66-45.81-49.09-73.68-49.09s-54.04,17.43-73.68,49.09c-19.55,31.51-30.32,73.38-30.32,117.91s10.77,86.4,30.32,117.91c19.64,31.66,45.81,49.09,73.68,49.09m0-353c-91.13,0-165,82.38-165,184s73.87,184,165,184,165-82.38,165-184S347.13,30,256,30h0Zm0,352c-56.89,0-103-74.32-103-166s46.11-166,103-166,103,74.32,103,166-46.11,166-103,166h0Z"/>
  </g>
  <path class="cls-1" d="m256,259c-45.84,0-83,43.2-83,96.5,0,43.18,24.39,79.73,58.03,92.05-15.54-15.34-26.03-44.54-26.03-78.05,0-49.43,22.83-89.5,51-89.5s51,40.07,51,89.5c0,33.51-10.5,62.72-26.03,78.05,33.64-12.32,58.03-48.87,58.03-92.05,0-53.3-37.16-96.5-83-96.5Z"/>
</svg>
